<?xml version="1.0" encoding="iso-8859-1"?>
<!-- Uploaded to: SVG Repo, www.svgrepo.com, Generator: SVG Repo Mixer Tools -->
<svg version="1.1" id="Layer_1" xmlns="http://www.w3.org/2000/svg" xmlns:xlink="http://www.w3.org/1999/xlink" 
	 viewBox="0 0 512 512" xml:space="preserve">
<path style="fill:#A4A9AD;" d="M420.939,183.913h36.316c4.37,0,7.944,3.575,7.944,7.944v17.024c0,4.369-3.576,7.944-7.944,7.944
	h-36.316V183.913z"/>
<rect x="420.936" y="183.914" style="opacity:0.1;enable-background:new    ;" width="16.928" height="32.912"/>
<path style="fill:#A4A9AD;" d="M91.061,183.913H54.745c-4.37,0-7.944,3.575-7.944,7.944v17.024c0,4.369,3.576,7.944,7.944,7.944
	H91.06v-32.913H91.061z"/>
<rect x="74.134" y="183.914" style="opacity:0.1;enable-background:new    ;" width="16.927" height="32.912"/>
<path style="fill:#A4A9AD;" d="M356.265,85.075h-40.478V52.884c0-6.724-5.681-12.404-12.404-12.404h-94.764
	c-6.724,0-12.405,5.681-12.405,12.404v32.191h-40.478V52.884C155.733,23.723,179.457,0,208.617,0h94.764
	c29.159,0,52.883,23.723,52.883,52.883v32.192H356.265z"/>
<path style="opacity:0.1;enable-background:new    ;" d="M155.733,52.883v32.191h40.478V52.883c0-1.224,0.193-2.41,0.541-3.537
	h-40.889C155.786,50.518,155.733,51.693,155.733,52.883z M356.133,49.347h-40.887c0.349,1.126,0.54,2.313,0.54,3.537v32.191h40.478
	V52.884C356.265,51.693,356.211,50.518,356.133,49.347z"/>
<path style="fill:#D1D3D3;" d="M407.676,81.962c0-10.772-8.815-19.587-19.588-19.587H123.914c-10.772,0-19.588,8.814-19.588,19.587
	v28.008c0,10.772,8.815,19.587,19.588,19.587h264.174c10.772,0,19.588-8.814,19.588-19.587V81.962z"/>
<path style="opacity:0.05;enable-background:new    ;" d="M407.289,78.12H104.713c-0.251,1.244-0.387,2.527-0.387,3.841v28.008
	c0,10.772,8.815,19.587,19.588,19.587h264.174c10.772,0,19.588-8.814,19.588-19.587V81.962
	C407.676,80.648,407.54,79.364,407.289,78.12z"/>
<path style="fill:#D1D3D3;" d="M84.25,134.854v347.299c0,16.415,13.429,29.847,29.847,29.847h283.808
	c16.416,0,29.847-13.431,29.847-29.847V134.854H84.25z"/>
<path style="opacity:0.1;enable-background:new    ;" d="M84.25,465.544v16.609c0,16.415,13.429,29.847,29.847,29.847h283.808
	c16.416,0,29.847-13.431,29.847-29.847v-16.609H84.25z"/>
<rect x="84.25" y="134.85" style="opacity:0.1;enable-background:new    ;" width="343.502" height="42.477"/>
<g>
	<path style="fill:#A4A9AD;" d="M451.112,113.375c0-10.772-8.814-19.586-19.587-19.586H80.474c-10.772,0-19.587,8.813-19.587,19.586
		v20.173c0,10.772,8.814,19.587,19.587,19.587h351.052c10.772,0,19.587-8.814,19.587-19.587L451.112,113.375L451.112,113.375z"/>
	<path style="fill:#A4A9AD;" d="M256.001,430.817c-11.178,0-20.24-9.062-20.24-20.24V220.609c0-11.178,9.061-20.24,20.24-20.24
		c11.179,0,20.24,9.062,20.24,20.24v189.968C276.24,421.756,267.18,430.817,256.001,430.817z"/>
	<path style="fill:#A4A9AD;" d="M162.421,430.817c-11.179,0-20.241-9.062-20.241-20.24V220.609c0-11.178,9.062-20.24,20.241-20.24
		c11.178,0,20.24,9.062,20.24,20.24v189.968C182.66,421.756,173.599,430.817,162.421,430.817z"/>
	<path style="fill:#A4A9AD;" d="M349.58,430.817c-11.179,0-20.24-9.062-20.24-20.24V220.609c0-11.178,9.061-20.24,20.24-20.24
		c11.178,0,20.24,9.062,20.24,20.24v189.968C369.82,421.756,360.759,430.817,349.58,430.817z"/>
</g>
</svg>